<svg xmlns="http://www.w3.org/2000/svg" width="12" height="12" viewBox="0 0 14 14"><g transform="translate(-25 -191)"><circle data-name="Ellipse 497" cx="6" cy="6" transform="translate(26 192)" fill="transparent" r="6"></circle><path data-name="Path 4408" d="M31.563 191h.875a.777.777 0 0 0 .105.022 6.682 6.682 0 0 1 3.028.96 6.909 6.909 0 0 1 3.322 4.811c.048.254.072.512.107.769v.875a.78.78 0 0 0-.023.106 6.745 6.745 0 0 1-1.142 3.317 6.9 6.9 0 0 1-4.616 3.031c-.258.048-.521.073-.782.109h-.875a.586.586 0 0 0-.091-.022 6.747 6.747 0 0 1-3.319-1.135 6.9 6.9 0 0 1-3.043-4.623c-.048-.259-.073-.521-.109-.782v-.875c.02-.166.037-.333.061-.5a7.013 7.013 0 0 1 5.747-5.958c.25-.043.503-.07.755-.105zm3.793 10.094v.024h.751a.237.237 0 0 0 .165-.081 5.19 5.19 0 0 0 .979-2.961.2.2 0 0 0-.1-.188c-.382-.264-.761-.533-1.141-.8a.5.5 0 0 1-.23-.7c.152-.443.307-.885.453-1.33a.229.229 0 0 0-.027-.181 5.227 5.227 0 0 0-2.515-1.846.187.187 0 0 0-.2.031c-.376.287-.756.571-1.135.855a.5.5 0 0 1-.716 0c-.375-.281-.752-.561-1.124-.846a.2.2 0 0 0-.209-.038 5.222 5.222 0 0 0-2.515 1.846.229.229 0 0 0-.027.181c.146.445.3.887.453 1.33a.506.506 0 0 1-.231.7c-.376.264-.751.531-1.13.792a.218.218 0 0 0-.111.21 5.262 5.262 0 0 0 .967 2.939.2.2 0 0 0 .192.093c.464-.011.929-.017 1.394-.025a.509.509 0 0 1 .589.429c.137.448.277.895.411 1.344a.185.185 0 0 0 .141.142 5.2 5.2 0 0 0 3.106.006.205.205 0 0 0 .156-.161c.133-.449.272-.9.411-1.344a.5.5 0 0 1 .572-.416c.225.001.448-.005.671-.005z" fill="var(--MFFullscreenColorScheme-iconColor)"></path><path data-name="Path 4409" d="M203.2 371.178c-.269 0-.538-.006-.806 0a.493.493 0 0 1-.513-.347l-.6-1.481c-.079-.2-.161-.4-.231-.6a.454.454 0 0 1 .176-.589q.832-.633 1.671-1.254a.446.446 0 0 1 .592 0q.846.625 1.683 1.262a.443.443 0 0 1 .168.579c-.277.712-.562 1.421-.849 2.128a.46.46 0 0 1-.474.3c-.274-.002-.547.002-.817.002z" transform="translate(-171.195 -170.991)" fill="var(--MFFullscreenColorScheme-iconColor)"></path></g></svg>